<svg class="rich-terminal" viewBox="0 0 1458 879.5999999999999" xmlns="http://www.w3.org/2000/svg">
    <!-- Generated with Rich https://www.textualize.io -->
    <style>

    @font-face {
        font-family: "Fira Code";
        src: local("FiraCode-Regular"),
                url("https://cdnjs.cloudflare.com/ajax/libs/firacode/6.2.0/woff2/FiraCode-Regular.woff2") format("woff2"),
                url("https://cdnjs.cloudflare.com/ajax/libs/firacode/6.2.0/woff/FiraCode-Regular.woff") format("woff");
        font-style: normal;
        font-weight: 400;
    }
    @font-face {
        font-family: "Fira Code";
        src: local("FiraCode-Bold"),
                url("https://cdnjs.cloudflare.com/ajax/libs/firacode/6.2.0/woff2/FiraCode-Bold.woff2") format("woff2"),
                url("https://cdnjs.cloudflare.com/ajax/libs/firacode/6.2.0/woff/FiraCode-Bold.woff") format("woff");
        font-style: bold;
        font-weight: 700;
    }

    .terminal-130391079-matrix {
        font-family: Fira Code, monospace;
        font-size: 20px;
        line-height: 24.4px;
        font-variant-east-asian: full-width;
    }

    .terminal-130391079-title {
        font-size: 18px;
        font-weight: bold;
        font-family: arial;
    }

    .terminal-130391079-r1 { fill: #e0e0e0 }
.terminal-130391079-r2 { fill: #c5c8c6 }
.terminal-130391079-r3 { fill: #e0e0e0;font-weight: bold }
.terminal-130391079-r4 { fill: #a0a0a0 }
.terminal-130391079-r5 { fill: #a1a1a1 }
.terminal-130391079-r6 { fill: #b0b0b0 }
.terminal-130391079-r7 { fill: #b0b0b0;font-weight: bold }
.terminal-130391079-r8 { fill: #aaaaaa }
.terminal-130391079-r9 { fill: #121212 }
.terminal-130391079-r10 { fill: #797979 }
.terminal-130391079-r11 { fill: #515151 }
    </style>

    <defs>
    <clipPath id="terminal-130391079-clip-terminal">
      <rect x="0" y="0" width="1438.6" height="828.5999999999999" />
    </clipPath>
    <clipPath id="terminal-130391079-line-0">
    <rect x="0" y="1.5" width="1439.6" height="24.65"/>
            </clipPath>
<clipPath id="terminal-130391079-line-1">
    <rect x="0" y="25.9" width="1439.6" height="24.65"/>
            </clipPath>
<clipPath id="terminal-130391079-line-2">
    <rect x="0" y="50.3" width="1439.6" height="24.65"/>
            </clipPath>
<clipPath id="terminal-130391079-line-3">
    <rect x="0" y="74.7" width="1439.6" height="24.65"/>
            </clipPath>
<clipPath id="terminal-130391079-line-4">
    <rect x="0" y="99.1" width="1439.6" height="24.65"/>
            </clipPath>
<clipPath id="terminal-130391079-line-5">
    <rect x="0" y="123.5" width="1439.6" height="24.65"/>
            </clipPath>
<clipPath id="terminal-130391079-line-6">
    <rect x="0" y="147.9" width="1439.6" height="24.65"/>
            </clipPath>
<clipPath id="terminal-130391079-line-7">
    <rect x="0" y="172.3" width="1439.6" height="24.65"/>
            </clipPath>
<clipPath id="terminal-130391079-line-8">
    <rect x="0" y="196.7" width="1439.6" height="24.65"/>
            </clipPath>
<clipPath id="terminal-130391079-line-9">
    <rect x="0" y="221.1" width="1439.6" height="24.65"/>
            </clipPath>
<clipPath id="terminal-130391079-line-10">
    <rect x="0" y="245.5" width="1439.6" height="24.65"/>
            </clipPath>
<clipPath id="terminal-130391079-line-11">
    <rect x="0" y="269.9" width="1439.6" height="24.65"/>
            </clipPath>
<clipPath id="terminal-130391079-line-12">
    <rect x="0" y="294.3" width="1439.6" height="24.65"/>
            </clipPath>
<clipPath id="terminal-130391079-line-13">
    <rect x="0" y="318.7" width="1439.6" height="24.65"/>
            </clipPath>
<clipPath id="terminal-130391079-line-14">
    <rect x="0" y="343.1" width="1439.6" height="24.65"/>
            </clipPath>
<clipPath id="terminal-130391079-line-15">
    <rect x="0" y="367.5" width="1439.6" height="24.65"/>
            </clipPath>
<clipPath id="terminal-130391079-line-16">
    <rect x="0" y="391.9" width="1439.6" height="24.65"/>
            </clipPath>
<clipPath id="terminal-130391079-line-17">
    <rect x="0" y="416.3" width="1439.6" height="24.65"/>
            </clipPath>
<clipPath id="terminal-130391079-line-18">
    <rect x="0" y="440.7" width="1439.6" height="24.65"/>
            </clipPath>
<clipPath id="terminal-130391079-line-19">
    <rect x="0" y="465.1" width="1439.6" height="24.65"/>
            </clipPath>
<clipPath id="terminal-130391079-line-20">
    <rect x="0" y="489.5" width="1439.6" height="24.65"/>
            </clipPath>
<clipPath id="terminal-130391079-line-21">
    <rect x="0" y="513.9" width="1439.6" height="24.65"/>
            </clipPath>
<clipPath id="terminal-130391079-line-22">
    <rect x="0" y="538.3" width="1439.6" height="24.65"/>
            </clipPath>
<clipPath id="terminal-130391079-line-23">
    <rect x="0" y="562.7" width="1439.6" height="24.65"/>
            </clipPath>
<clipPath id="terminal-130391079-line-24">
    <rect x="0" y="587.1" width="1439.6" height="24.65"/>
            </clipPath>
<clipPath id="terminal-130391079-line-25">
    <rect x="0" y="611.5" width="1439.6" height="24.65"/>
            </clipPath>
<clipPath id="terminal-130391079-line-26">
    <rect x="0" y="635.9" width="1439.6" height="24.65"/>
            </clipPath>
<clipPath id="terminal-130391079-line-27">
    <rect x="0" y="660.3" width="1439.6" height="24.65"/>
            </clipPath>
<clipPath id="terminal-130391079-line-28">
    <rect x="0" y="684.7" width="1439.6" height="24.65"/>
            </clipPath>
<clipPath id="terminal-130391079-line-29">
    <rect x="0" y="709.1" width="1439.6" height="24.65"/>
            </clipPath>
<clipPath id="terminal-130391079-line-30">
    <rect x="0" y="733.5" width="1439.6" height="24.65"/>
            </clipPath>
<clipPath id="terminal-130391079-line-31">
    <rect x="0" y="757.9" width="1439.6" height="24.65"/>
            </clipPath>
<clipPath id="terminal-130391079-line-32">
    <rect x="0" y="782.3" width="1439.6" height="24.65"/>
            </clipPath>
    </defs>

    <rect fill="#292929" stroke="rgba(255,255,255,0.35)" stroke-width="1" x="1" y="1" width="1456" height="877.6" rx="8"/><text class="terminal-130391079-title" fill="#c5c8c6" text-anchor="middle" x="728" y="27">AgentLayerTui</text>
            <g transform="translate(26,22)">
            <circle cx="0" cy="0" r="7" fill="#ff5f57"/>
            <circle cx="22" cy="0" r="7" fill="#febc2e"/>
            <circle cx="44" cy="0" r="7" fill="#28c840"/>
            </g>
        
    <g transform="translate(9, 41)" clip-path="url(#terminal-130391079-clip-terminal)">
    <rect fill="#121212" x="0" y="1.5" width="1183.4" height="24.65" shape-rendering="crispEdges"/><rect fill="#121212" x="1183.4" y="1.5" width="256.2" height="24.65" shape-rendering="crispEdges"/><rect fill="#121212" x="0" y="25.9" width="244" height="24.65" shape-rendering="crispEdges"/><rect fill="#121212" x="244" y="25.9" width="1195.6" height="24.65" shape-rendering="crispEdges"/><rect fill="#121212" x="0" y="50.3" width="12.2" height="24.65" shape-rendering="crispEdges"/><rect fill="#121212" x="12.2" y="50.3" width="1415.2" height="24.65" shape-rendering="crispEdges"/><rect fill="#121212" x="1427.4" y="50.3" width="12.2" height="24.65" shape-rendering="crispEdges"/><rect fill="#121212" x="0" y="74.7" width="12.2" height="24.65" shape-rendering="crispEdges"/><rect fill="#121212" x="12.2" y="74.7" width="244" height="24.65" shape-rendering="crispEdges"/><rect fill="#121212" x="256.2" y="74.7" width="1171.2" height="24.65" shape-rendering="crispEdges"/><rect fill="#121212" x="1427.4" y="74.7" width="12.2" height="24.65" shape-rendering="crispEdges"/><rect fill="#121212" x="0" y="99.1" width="12.2" height="24.65" shape-rendering="crispEdges"/><rect fill="#121212" x="12.2" y="99.1" width="756.4" height="24.65" shape-rendering="crispEdges"/><rect fill="#121212" x="768.6" y="99.1" width="658.8" height="24.65" shape-rendering="crispEdges"/><rect fill="#121212" x="1427.4" y="99.1" width="12.2" height="24.65" shape-rendering="crispEdges"/><rect fill="#121212" x="0" y="123.5" width="12.2" height="24.65" shape-rendering="crispEdges"/><rect fill="#121212" x="12.2" y="123.5" width="85.4" height="24.65" shape-rendering="crispEdges"/><rect fill="#121212" x="97.6" y="123.5" width="1329.8" height="24.65" shape-rendering="crispEdges"/><rect fill="#121212" x="1427.4" y="123.5" width="12.2" height="24.65" shape-rendering="crispEdges"/><rect fill="#121212" x="0" y="147.9" width="12.2" height="24.65" shape-rendering="crispEdges"/><rect fill="#121212" x="12.2" y="147.9" width="622.2" height="24.65" shape-rendering="crispEdges"/><rect fill="#121212" x="634.4" y="147.9" width="793" height="24.65" shape-rendering="crispEdges"/><rect fill="#121212" x="1427.4" y="147.9" width="12.2" height="24.65" shape-rendering="crispEdges"/><rect fill="#121212" x="0" y="172.3" width="12.2" height="24.65" shape-rendering="crispEdges"/><rect fill="#121212" x="12.2" y="172.3" width="390.4" height="24.65" shape-rendering="crispEdges"/><rect fill="#121212" x="402.6" y="172.3" width="1024.8" height="24.65" shape-rendering="crispEdges"/><rect fill="#121212" x="1427.4" y="172.3" width="12.2" height="24.65" shape-rendering="crispEdges"/><rect fill="#121212" x="0" y="196.7" width="12.2" height="24.65" shape-rendering="crispEdges"/><rect fill="#121212" x="12.2" y="196.7" width="622.2" height="24.65" shape-rendering="crispEdges"/><rect fill="#121212" x="634.4" y="196.7" width="793" height="24.65" shape-rendering="crispEdges"/><rect fill="#121212" x="1427.4" y="196.7" width="12.2" height="24.65" shape-rendering="crispEdges"/><rect fill="#121212" x="0" y="221.1" width="12.2" height="24.65" shape-rendering="crispEdges"/><rect fill="#121212" x="12.2" y="221.1" width="207.4" height="24.65" shape-rendering="crispEdges"/><rect fill="#121212" x="219.6" y="221.1" width="1207.8" height="24.65" shape-rendering="crispEdges"/><rect fill="#121212" x="1427.4" y="221.1" width="12.2" height="24.65" shape-rendering="crispEdges"/><rect fill="#121212" x="0" y="245.5" width="12.2" height="24.65" shape-rendering="crispEdges"/><rect fill="#121212" x="12.2" y="245.5" width="610" height="24.65" shape-rendering="crispEdges"/><rect fill="#121212" x="622.2" y="245.5" width="805.2" height="24.65" shape-rendering="crispEdges"/><rect fill="#121212" x="1427.4" y="245.5" width="12.2" height="24.65" shape-rendering="crispEdges"/><rect fill="#121212" x="0" y="269.9" width="12.2" height="24.65" shape-rendering="crispEdges"/><rect fill="#121212" x="12.2" y="269.9" width="500.2" height="24.65" shape-rendering="crispEdges"/><rect fill="#121212" x="512.4" y="269.9" width="915" height="24.65" shape-rendering="crispEdges"/><rect fill="#121212" x="1427.4" y="269.9" width="12.2" height="24.65" shape-rendering="crispEdges"/><rect fill="#121212" x="0" y="294.3" width="12.2" height="24.65" shape-rendering="crispEdges"/><rect fill="#121212" x="12.2" y="294.3" width="317.2" height="24.65" shape-rendering="crispEdges"/><rect fill="#121212" x="329.4" y="294.3" width="1098" height="24.65" shape-rendering="crispEdges"/><rect fill="#121212" x="1427.4" y="294.3" width="12.2" height="24.65" shape-rendering="crispEdges"/><rect fill="#121212" x="0" y="318.7" width="12.2" height="24.65" shape-rendering="crispEdges"/><rect fill="#121212" x="12.2" y="318.7" width="378.2" height="24.65" shape-rendering="crispEdges"/><rect fill="#121212" x="390.4" y="318.7" width="1037" height="24.65" shape-rendering="crispEdges"/><rect fill="#121212" x="1427.4" y="318.7" width="12.2" height="24.65" shape-rendering="crispEdges"/><rect fill="#121212" x="0" y="343.1" width="12.2" height="24.65" shape-rendering="crispEdges"/><rect fill="#121212" x="12.2" y="343.1" width="414.8" height="24.65" shape-rendering="crispEdges"/><rect fill="#121212" x="427" y="343.1" width="1000.4" height="24.65" shape-rendering="crispEdges"/><rect fill="#121212" x="1427.4" y="343.1" width="12.2" height="24.65" shape-rendering="crispEdges"/><rect fill="#121212" x="0" y="367.5" width="12.2" height="24.65" shape-rendering="crispEdges"/><rect fill="#121212" x="12.2" y="367.5" width="85.4" height="24.65" shape-rendering="crispEdges"/><rect fill="#121212" x="97.6" y="367.5" width="1329.8" height="24.65" shape-rendering="crispEdges"/><rect fill="#121212" x="1427.4" y="367.5" width="12.2" height="24.65" shape-rendering="crispEdges"/><rect fill="#121212" x="0" y="391.9" width="12.2" height="24.65" shape-rendering="crispEdges"/><rect fill="#121212" x="12.2" y="391.9" width="1415.2" height="24.65" shape-rendering="crispEdges"/><rect fill="#121212" x="1427.4" y="391.9" width="12.2" height="24.65" shape-rendering="crispEdges"/><rect fill="#121212" x="0" y="416.3" width="12.2" height="24.65" shape-rendering="crispEdges"/><rect fill="#121212" x="12.2" y="416.3" width="1403" height="24.65" shape-rendering="crispEdges"/><rect fill="#121212" x="1415.2" y="416.3" width="12.2" height="24.65" shape-rendering="crispEdges"/><rect fill="#121212" x="1427.4" y="416.3" width="12.2" height="24.65" shape-rendering="crispEdges"/><rect fill="#121212" x="0" y="440.7" width="12.2" height="24.65" shape-rendering="crispEdges"/><rect fill="#121212" x="12.2" y="440.7" width="634.4" height="24.65" shape-rendering="crispEdges"/><rect fill="#121212" x="646.6" y="440.7" width="780.8" height="24.65" shape-rendering="crispEdges"/><rect fill="#121212" x="1427.4" y="440.7" width="12.2" height="24.65" shape-rendering="crispEdges"/><rect fill="#121212" x="0" y="465.1" width="12.2" height="24.65" shape-rendering="crispEdges"/><rect fill="#121212" x="12.2" y="465.1" width="341.6" height="24.65" shape-rendering="crispEdges"/><rect fill="#121212" x="353.8" y="465.1" width="1073.6" height="24.65" shape-rendering="crispEdges"/><rect fill="#121212" x="1427.4" y="465.1" width="12.2" height="24.65" shape-rendering="crispEdges"/><rect fill="#121212" x="0" y="489.5" width="12.2" height="24.65" shape-rendering="crispEdges"/><rect fill="#121212" x="12.2" y="489.5" width="122" height="24.65" shape-rendering="crispEdges"/><rect fill="#121212" x="134.2" y="489.5" width="1293.2" height="24.65" shape-rendering="crispEdges"/><rect fill="#121212" x="1427.4" y="489.5" width="12.2" height="24.65" shape-rendering="crispEdges"/><rect fill="#121212" x="0" y="513.9" width="12.2" height="24.65" shape-rendering="crispEdges"/><rect fill="#121212" x="12.2" y="513.9" width="1415.2" height="24.65" shape-rendering="crispEdges"/><rect fill="#121212" x="1427.4" y="513.9" width="12.2" height="24.65" shape-rendering="crispEdges"/><rect fill="#121212" x="0" y="538.3" width="12.2" height="24.65" shape-rendering="crispEdges"/><rect fill="#121212" x="12.2" y="538.3" width="1415.2" height="24.65" shape-rendering="crispEdges"/><rect fill="#121212" x="1427.4" y="538.3" width="12.2" height="24.65" shape-rendering="crispEdges"/><rect fill="#121212" x="0" y="562.7" width="12.2" height="24.65" shape-rendering="crispEdges"/><rect fill="#121212" x="12.2" y="562.7" width="1415.2" height="24.65" shape-rendering="crispEdges"/><rect fill="#121212" x="1427.4" y="562.7" width="12.2" height="24.65" shape-rendering="crispEdges"/><rect fill="#121212" x="0" y="587.1" width="12.2" height="24.65" shape-rendering="crispEdges"/><rect fill="#121212" x="12.2" y="587.1" width="1415.2" height="24.65" shape-rendering="crispEdges"/><rect fill="#121212" x="1427.4" y="587.1" width="12.2" height="24.65" shape-rendering="crispEdges"/><rect fill="#121212" x="0" y="611.5" width="12.2" height="24.65" shape-rendering="crispEdges"/><rect fill="#121212" x="12.2" y="611.5" width="1415.2" height="24.65" shape-rendering="crispEdges"/><rect fill="#121212" x="1427.4" y="611.5" width="12.2" height="24.65" shape-rendering="crispEdges"/><rect fill="#121212" x="0" y="635.9" width="12.2" height="24.65" shape-rendering="crispEdges"/><rect fill="#121212" x="12.2" y="635.9" width="1415.2" height="24.65" shape-rendering="crispEdges"/><rect fill="#121212" x="1427.4" y="635.9" width="12.2" height="24.65" shape-rendering="crispEdges"/><rect fill="#2d2d2d" x="0" y="660.3" width="12.2" height="24.65" shape-rendering="crispEdges"/><rect fill="#2d2d2d" x="12.2" y="660.3" width="585.6" height="24.65" shape-rendering="crispEdges"/><rect fill="#2d2d2d" x="597.8" y="660.3" width="829.6" height="24.65" shape-rendering="crispEdges"/><rect fill="#2d2d2d" x="1427.4" y="660.3" width="12.2" height="24.65" shape-rendering="crispEdges"/><rect fill="#2d2d2d" x="0" y="684.7" width="12.2" height="24.65" shape-rendering="crispEdges"/><rect fill="#2d2d2d" x="12.2" y="684.7" width="841.8" height="24.65" shape-rendering="crispEdges"/><rect fill="#2d2d2d" x="854" y="684.7" width="573.4" height="24.65" shape-rendering="crispEdges"/><rect fill="#2d2d2d" x="1427.4" y="684.7" width="12.2" height="24.65" shape-rendering="crispEdges"/><rect fill="#121212" x="0" y="709.1" width="12.2" height="24.65" shape-rendering="crispEdges"/><rect fill="#121212" x="12.2" y="709.1" width="0" height="24.65" shape-rendering="crispEdges"/><rect fill="#121212" x="12.2" y="709.1" width="1415.2" height="24.65" shape-rendering="crispEdges"/><rect fill="#121212" x="1427.4" y="709.1" width="12.2" height="24.65" shape-rendering="crispEdges"/><rect fill="#272727" x="0" y="733.5" width="24.4" height="24.65" shape-rendering="crispEdges"/><rect fill="#e0e0e0" x="24.4" y="733.5" width="12.2" height="24.65" shape-rendering="crispEdges"/><rect fill="#272727" x="36.6" y="733.5" width="146.4" height="24.65" shape-rendering="crispEdges"/><rect fill="#272727" x="183" y="733.5" width="1232.2" height="24.65" shape-rendering="crispEdges"/><rect fill="#272727" x="1415.2" y="733.5" width="24.4" height="24.65" shape-rendering="crispEdges"/><rect fill="#272727" x="0" y="757.9" width="24.4" height="24.65" shape-rendering="crispEdges"/><rect fill="#272727" x="24.4" y="757.9" width="1390.8" height="24.65" shape-rendering="crispEdges"/><rect fill="#272727" x="1415.2" y="757.9" width="24.4" height="24.65" shape-rendering="crispEdges"/><rect fill="#272727" x="0" y="782.3" width="24.4" height="24.65" shape-rendering="crispEdges"/><rect fill="#272727" x="24.4" y="782.3" width="1390.8" height="24.65" shape-rendering="crispEdges"/><rect fill="#272727" x="1415.2" y="782.3" width="24.4" height="24.65" shape-rendering="crispEdges"/><rect fill="#2d2d2d" x="0" y="806.7" width="48.8" height="24.65" shape-rendering="crispEdges"/><rect fill="#2d2d2d" x="48.8" y="806.7" width="61" height="24.65" shape-rendering="crispEdges"/><rect fill="#2d2d2d" x="109.8" y="806.7" width="48.8" height="24.65" shape-rendering="crispEdges"/><rect fill="#2d2d2d" x="158.6" y="806.7" width="85.4" height="24.65" shape-rendering="crispEdges"/><rect fill="#2d2d2d" x="244" y="806.7" width="1049.2" height="24.65" shape-rendering="crispEdges"/><rect fill="#2d2d2d" x="1293.2" y="806.7" width="12.2" height="24.65" shape-rendering="crispEdges"/><rect fill="#2d2d2d" x="1305.4" y="806.7" width="24.4" height="24.65" shape-rendering="crispEdges"/><rect fill="#2d2d2d" x="1329.8" y="806.7" width="97.6" height="24.65" shape-rendering="crispEdges"/><rect fill="#2d2d2d" x="1427.4" y="806.7" width="12.2" height="24.65" shape-rendering="crispEdges"/>
    <g class="terminal-130391079-matrix">
    <text class="terminal-130391079-r1" x="0" y="20" textLength="1183.4" clip-path="url(#terminal-130391079-line-0)">&#160;&#160;AgentLayer&#160;&#160;·&#160;&#160;http://127.0.0.1:8088&#160;&#160;·&#160;&#160;Qwen3-Coder-30B-A3B-Instruct-UD-Q5_K_XL&#160;&#160;·&#160;&#160;general&#160;&#160;·</text><text class="terminal-130391079-r2" x="1439.6" y="20" textLength="12.2" clip-path="url(#terminal-130391079-line-0)">
</text><text class="terminal-130391079-r1" x="0" y="44.4" textLength="244" clip-path="url(#terminal-130391079-line-1)">ws:tui-verify-1573ed</text><text class="terminal-130391079-r2" x="1439.6" y="44.4" textLength="12.2" clip-path="url(#terminal-130391079-line-1)">
</text><text class="terminal-130391079-r2" x="1439.6" y="68.8" textLength="12.2" clip-path="url(#terminal-130391079-line-2)">
</text><text class="terminal-130391079-r3" x="12.2" y="93.2" textLength="244" clip-path="url(#terminal-130391079-line-3)">›&#160;/delegate&#160;coding&#160;…</text><text class="terminal-130391079-r2" x="1439.6" y="93.2" textLength="12.2" clip-path="url(#terminal-130391079-line-3)">
</text><text class="terminal-130391079-r4" x="12.2" y="117.6" textLength="756.4" clip-path="url(#terminal-130391079-line-4)">model&#160;&#160;Qwen3-Coder-30B-A3B-Instruct-UD-Q5_K_XL&#160;(override:body)</text><text class="terminal-130391079-r2" x="1439.6" y="117.6" textLength="12.2" clip-path="url(#terminal-130391079-line-4)">
</text><text class="terminal-130391079-r4" x="12.2" y="142" textLength="85.4" clip-path="url(#terminal-130391079-line-5)">round&#160;1</text><text class="terminal-130391079-r2" x="1439.6" y="142" textLength="12.2" clip-path="url(#terminal-130391079-line-5)">
</text><text class="terminal-130391079-r5" x="12.2" y="166.4" textLength="622.2" clip-path="url(#terminal-130391079-line-6)">⏺&#160;Conversation&#160;goal,&#160;todos&#160;&amp;&#160;plan&#160;mode&#160;&#160;✓&#160;256&#160;chars</text><text class="terminal-130391079-r2" x="1439.6" y="166.4" textLength="12.2" clip-path="url(#terminal-130391079-line-6)">
</text><text class="terminal-130391079-r6" x="12.2" y="190.8" textLength="390.4" clip-path="url(#terminal-130391079-line-7)">goal&#160;create:&#160;Ship&#160;the&#160;TUI&#160;client</text><text class="terminal-130391079-r2" x="1439.6" y="190.8" textLength="12.2" clip-path="url(#terminal-130391079-line-7)">
</text><text class="terminal-130391079-r5" x="12.2" y="215.2" textLength="622.2" clip-path="url(#terminal-130391079-line-8)">⏺&#160;Conversation&#160;goal,&#160;todos&#160;&amp;&#160;plan&#160;mode&#160;&#160;✓&#160;299&#160;chars</text><text class="terminal-130391079-r2" x="1439.6" y="215.2" textLength="12.2" clip-path="url(#terminal-130391079-line-8)">
</text><text class="terminal-130391079-r6" x="12.2" y="239.6" textLength="207.4" clip-path="url(#terminal-130391079-line-9)">todos&#160;updated&#160;(3)</text><text class="terminal-130391079-r2" x="1439.6" y="239.6" textLength="12.2" clip-path="url(#terminal-130391079-line-9)">
</text><text class="terminal-130391079-r5" x="12.2" y="264" textLength="610" clip-path="url(#terminal-130391079-line-10)">⏺&#160;Delegate&#160;to&#160;specialist&#160;agent&#160;coding&#160;&#160;✓&#160;461&#160;chars</text><text class="terminal-130391079-r2" x="1439.6" y="264" textLength="12.2" clip-path="url(#terminal-130391079-line-10)">
</text><text class="terminal-130391079-r7" x="12.2" y="288.4" textLength="500.2" clip-path="url(#terminal-130391079-line-11)">⏺&#160;delegate&#160;→&#160;coding:&#160;Specialist&#160;sub-agent</text><text class="terminal-130391079-r2" x="1439.6" y="288.4" textLength="12.2" clip-path="url(#terminal-130391079-line-11)">
</text><text class="terminal-130391079-r5" x="12.2" y="312.8" textLength="317.2" clip-path="url(#terminal-130391079-line-12)">&#160;&#160;│&#160;⏺&#160;Project&#160;Explainer&#160;&#160;✓</text><text class="terminal-130391079-r2" x="1439.6" y="312.8" textLength="12.2" clip-path="url(#terminal-130391079-line-12)">
</text><text class="terminal-130391079-r5" x="12.2" y="337.2" textLength="378.2" clip-path="url(#terminal-130391079-line-13)">&#160;&#160;│&#160;⏺&#160;Coding:&#160;List&#160;directory&#160;&#160;✓</text><text class="terminal-130391079-r2" x="1439.6" y="337.2" textLength="12.2" clip-path="url(#terminal-130391079-line-13)">
</text><text class="terminal-130391079-r5" x="12.2" y="361.6" textLength="414.8" clip-path="url(#terminal-130391079-line-14)">&#160;&#160;│&#160;└&#160;coding&#160;✓&#160;finished&#160;(88&#160;chars)</text><text class="terminal-130391079-r2" x="1439.6" y="361.6" textLength="12.2" clip-path="url(#terminal-130391079-line-14)">
</text><text class="terminal-130391079-r4" x="12.2" y="386" textLength="85.4" clip-path="url(#terminal-130391079-line-15)">round&#160;2</text><text class="terminal-130391079-r2" x="1439.6" y="386" textLength="12.2" clip-path="url(#terminal-130391079-line-15)">
</text><text class="terminal-130391079-r2" x="1439.6" y="410.4" textLength="12.2" clip-path="url(#terminal-130391079-line-16)">
</text><text class="terminal-130391079-r1" x="12.2" y="434.8" textLength="1403" clip-path="url(#terminal-130391079-line-17)">The&#160;goal&#160;&quot;Ship&#160;the&#160;TUI&#160;client&quot;&#160;has&#160;been&#160;created,&#160;the&#160;todos&#160;have&#160;been&#160;set,&#160;and&#160;the&#160;repository&#160;appears&#160;to&#160;be&#160;empty&#160;or</text><text class="terminal-130391079-r2" x="1439.6" y="434.8" textLength="12.2" clip-path="url(#terminal-130391079-line-17)">
</text><text class="terminal-130391079-r1" x="12.2" y="459.2" textLength="634.4" clip-path="url(#terminal-130391079-line-18)">without&#160;visible&#160;files&#160;according&#160;to&#160;the&#160;coding&#160;agent.</text><text class="terminal-130391079-r2" x="1439.6" y="459.2" textLength="12.2" clip-path="url(#terminal-130391079-line-18)">
</text><text class="terminal-130391079-r6" x="12.2" y="483.6" textLength="341.6" clip-path="url(#terminal-130391079-line-19)">goal&#160;round&#160;1/32&#160;—&#160;continuing</text><text class="terminal-130391079-r2" x="1439.6" y="483.6" textLength="12.2" clip-path="url(#terminal-130391079-line-19)">
</text><text class="terminal-130391079-r6" x="12.2" y="508" textLength="122" clip-path="url(#terminal-130391079-line-20)">bash:&#160;once</text><text class="terminal-130391079-r2" x="1439.6" y="508" textLength="12.2" clip-path="url(#terminal-130391079-line-20)">
</text><text class="terminal-130391079-r2" x="1439.6" y="532.4" textLength="12.2" clip-path="url(#terminal-130391079-line-21)">
</text><text class="terminal-130391079-r2" x="1439.6" y="556.8" textLength="12.2" clip-path="url(#terminal-130391079-line-22)">
</text><text class="terminal-130391079-r2" x="1439.6" y="581.2" textLength="12.2" clip-path="url(#terminal-130391079-line-23)">
</text><text class="terminal-130391079-r2" x="1439.6" y="605.6" textLength="12.2" clip-path="url(#terminal-130391079-line-24)">
</text><text class="terminal-130391079-r2" x="1439.6" y="630" textLength="12.2" clip-path="url(#terminal-130391079-line-25)">
</text><text class="terminal-130391079-r2" x="1439.6" y="654.4" textLength="12.2" clip-path="url(#terminal-130391079-line-26)">
</text><text class="terminal-130391079-r8" x="12.2" y="678.8" textLength="585.6" clip-path="url(#terminal-130391079-line-27)">Goal&#160;&#160;Ship&#160;the&#160;TUI&#160;client&#160;&#160;&#160;[active,&#160;round&#160;0/32]</text><text class="terminal-130391079-r2" x="1439.6" y="678.8" textLength="12.2" clip-path="url(#terminal-130391079-line-27)">
</text><text class="terminal-130391079-r8" x="12.2" y="703.2" textLength="841.8" clip-path="url(#terminal-130391079-line-28)">Todos&#160;1/3&#160;&#160;&#160;✓&#160;render&#160;tool&#160;lines&#160;&#160;&#160;▶&#160;goal&#160;strip&#160;&#160;&#160;○&#160;permission&#160;prompts</text><text class="terminal-130391079-r2" x="1439.6" y="703.2" textLength="12.2" clip-path="url(#terminal-130391079-line-28)">
</text><text class="terminal-130391079-r2" x="1439.6" y="727.6" textLength="12.2" clip-path="url(#terminal-130391079-line-29)">
</text><text class="terminal-130391079-r9" x="24.4" y="752" textLength="12.2" clip-path="url(#terminal-130391079-line-30)">A</text><text class="terminal-130391079-r10" x="36.6" y="752" textLength="146.4" clip-path="url(#terminal-130391079-line-30)">sk,&#160;or&#160;/help</text><text class="terminal-130391079-r2" x="1439.6" y="752" textLength="12.2" clip-path="url(#terminal-130391079-line-30)">
</text><text class="terminal-130391079-r2" x="1439.6" y="776.4" textLength="12.2" clip-path="url(#terminal-130391079-line-31)">
</text><text class="terminal-130391079-r2" x="1439.6" y="800.8" textLength="12.2" clip-path="url(#terminal-130391079-line-32)">
</text><text class="terminal-130391079-r7" x="0" y="825.2" textLength="48.8" clip-path="url(#terminal-130391079-line-33)">&#160;^d&#160;</text><text class="terminal-130391079-r1" x="48.8" y="825.2" textLength="61" clip-path="url(#terminal-130391079-line-33)">quit&#160;</text><text class="terminal-130391079-r7" x="109.8" y="825.2" textLength="48.8" clip-path="url(#terminal-130391079-line-33)">&#160;^c&#160;</text><text class="terminal-130391079-r1" x="158.6" y="825.2" textLength="85.4" clip-path="url(#terminal-130391079-line-33)">cancel&#160;</text><text class="terminal-130391079-r11" x="1293.2" y="825.2" textLength="12.2" clip-path="url(#terminal-130391079-line-33)">▏</text><text class="terminal-130391079-r7" x="1305.4" y="825.2" textLength="24.4" clip-path="url(#terminal-130391079-line-33)">^p</text><text class="terminal-130391079-r1" x="1329.8" y="825.2" textLength="97.6" clip-path="url(#terminal-130391079-line-33)">&#160;palette</text>
    </g>
    </g>
</svg>
